<svg id="visual" viewBox="0 0 900 600" width="900" height="600" xmlns="http://www.w3.org/2000/svg" xmlns:xlink="http://www.w3.org/1999/xlink" version="1.1"><path d="M0 43L13.7 53C27.3 63 54.7 83 82 92C109.3 101 136.7 99 163.8 96C191 93 218 89 245.2 84C272.3 79 299.7 73 327 74C354.3 75 381.7 83 409 82C436.3 81 463.7 71 491 72C518.3 73 545.7 85 573 82C600.3 79 627.7 61 654.8 54C682 47 709 51 736.2 60C763.3 69 790.7 83 818 81C845.3 79 872.7 61 886.3 52L900 43L900 0L886.3 0C872.7 0 845.3 0 818 0C790.7 0 763.3 0 736.2 0C709 0 682 0 654.8 0C627.7 0 600.3 0 573 0C545.7 0 518.3 0 491 0C463.7 0 436.3 0 409 0C381.7 0 354.3 0 327 0C299.7 0 272.3 0 245.2 0C218 0 191 0 163.8 0C136.7 0 109.3 0 82 0C54.7 0 27.3 0 13.7 0L0 0Z" fill="#6198ff"></path><path d="M0 199L13.7 202C27.3 205 54.7 211 82 218C109.3 225 136.7 233 163.8 227C191 221 218 201 245.2 193C272.3 185 299.7 189 327 190C354.3 191 381.7 189 409 192C436.3 195 463.7 203 491 197C518.3 191 545.7 171 573 158C600.3 145 627.7 139 654.8 145C682 151 709 169 736.2 175C763.3 181 790.7 175 818 179C845.3 183 872.7 197 886.3 204L900 211L900 41L886.3 50C872.7 59 845.3 77 818 79C790.7 81 763.3 67 736.2 58C709 49 682 45 654.8 52C627.7 59 600.3 77 573 80C545.7 83 518.3 71 491 70C463.7 69 436.3 79 409 80C381.7 81 354.3 73 327 72C299.7 71 272.3 77 245.2 82C218 87 191 91 163.8 94C136.7 97 109.3 99 82 90C54.7 81 27.3 61 13.7 51L0 41Z" fill="#3c80ff"></path><path d="M0 241L13.7 249C27.3 257 54.7 273 82 284C109.3 295 136.7 301 163.8 300C191 299 218 291 245.2 290C272.3 289 299.7 295 327 295C354.3 295 381.7 289 409 282C436.3 275 463.7 267 491 252C518.3 237 545.7 215 573 201C600.3 187 627.7 181 654.8 199C682 217 709 259 736.2 266C763.3 273 790.7 245 818 241C845.3 237 872.7 257 886.3 267L900 277L900 209L886.3 202C872.7 195 845.3 181 818 177C790.7 173 763.3 179 736.2 173C709 167 682 149 654.8 143C627.7 137 600.3 143 573 156C545.7 169 518.3 189 491 195C463.7 201 436.3 193 409 190C381.7 187 354.3 189 327 188C299.7 187 272.3 183 245.2 191C218 199 191 219 163.8 225C136.7 231 109.3 223 82 216C54.7 209 27.3 203 13.7 200L0 197Z" fill="#0066ff"></path><path d="M0 499L13.7 481C27.3 463 54.7 427 82 423C109.3 419 136.7 447 163.8 444C191 441 218 407 245.2 416C272.3 425 299.7 477 327 481C354.3 485 381.7 441 409 427C436.3 413 463.7 429 491 430C518.3 431 545.7 417 573 413C600.3 409 627.7 415 654.8 434C682 453 709 485 736.2 481C763.3 477 790.7 437 818 416C845.3 395 872.7 393 886.3 392L900 391L900 275L886.3 265C872.7 255 845.3 235 818 239C790.7 243 763.3 271 736.2 264C709 257 682 215 654.8 197C627.7 179 600.3 185 573 199C545.7 213 518.3 235 491 250C463.7 265 436.3 273 409 280C381.7 287 354.3 293 327 293C299.7 293 272.3 287 245.2 288C218 289 191 297 163.8 298C136.7 299 109.3 293 82 282C54.7 271 27.3 255 13.7 247L0 239Z" fill="#0059dd"></path><path d="M0 601L13.7 601C27.3 601 54.7 601 82 601C109.3 601 136.7 601 163.8 601C191 601 218 601 245.2 601C272.3 601 299.7 601 327 601C354.3 601 381.7 601 409 601C436.3 601 463.7 601 491 601C518.3 601 545.7 601 573 601C600.3 601 627.7 601 654.8 601C682 601 709 601 736.2 601C763.3 601 790.7 601 818 601C845.3 601 872.7 601 886.3 601L900 601L900 389L886.3 390C872.7 391 845.3 393 818 414C790.7 435 763.3 475 736.2 479C709 483 682 451 654.8 432C627.7 413 600.3 407 573 411C545.7 415 518.3 429 491 428C463.7 427 436.3 411 409 425C381.7 439 354.3 483 327 479C299.7 475 272.3 423 245.2 414C218 405 191 439 163.8 442C136.7 445 109.3 417 82 421C54.7 425 27.3 461 13.7 479L0 497Z" fill="#004cbb"></path></svg>